<svg width="24" height="24" viewBox="0 0 24 24" fill="none" xmlns="http://www.w3.org/2000/svg">
<path d="M20 8.01673L14 2.76302C13.45 2.27165 12.738 2 12 2C11.2621 2 10.5501 2.27165 10 2.76302L4.00009 8.01673C3.68246 8.30047 3.42899 8.64853 3.25656 9.03776C3.08414 9.42698 2.99671 9.84842 3.00009 10.274V19.0036C3.00009 19.7983 3.31616 20.5604 3.87877 21.1224C4.44137 21.6843 5.20443 22 6.00007 22H18C18.7956 22 19.5587 21.6843 20.1213 21.1224C20.6839 20.5604 21 19.7983 21 19.0036V10.264C21.0019 9.84011 20.9138 9.42059 20.7414 9.0332C20.5691 8.6458 20.3163 8.29935 20 8.01673ZM14 20.0024H10V15.0084C10 14.7435 10.1054 14.4894 10.2929 14.3021C10.4805 14.1148 10.7348 14.0096 11 14.0096H13C13.2652 14.0096 13.5196 14.1148 13.7071 14.3021C13.8947 14.4894 14 14.7435 14 15.0084V20.0024ZM19 19.0036C19 19.2685 18.8946 19.5225 18.7071 19.7098C18.5196 19.8972 18.2652 20.0024 18 20.0024H16V15.0084C16 14.2137 15.6839 13.4515 15.1213 12.8896C14.5587 12.3276 13.7957 12.012 13 12.012H11C10.2044 12.012 9.44134 12.3276 8.87873 12.8896C8.31613 13.4515 8.00006 14.2137 8.00006 15.0084V20.0024H6.00007C5.73486 20.0024 5.48051 19.8972 5.29297 19.7098C5.10544 19.5225 5.00008 19.2685 5.00008 19.0036V10.264C5.00026 10.1222 5.03067 9.98208 5.0893 9.85291C5.14792 9.72375 5.23341 9.60854 5.34008 9.51494L11.34 4.27121C11.5225 4.11109 11.7571 4.02278 12 4.02278C12.2429 4.02278 12.4775 4.11109 12.66 4.27121L18.66 9.51494C18.7667 9.60854 18.8521 9.72375 18.9108 9.85291C18.9694 9.98208 18.9998 10.1222 19 10.264V19.0036Z" fill="#3A3F4D"/>
</svg>
